<mxfile host="app.diagrams.net" modified="2024-08-01T09:47:43.636Z" agent="Mozilla/5.0 (Macintosh; Intel Mac OS X 10_15_7) AppleWebKit/537.36 (KHTML, like Gecko) Chrome/126.0.0.0 Safari/537.36" version="24.6.5" etag="2boV-DrNEpHZKuv8Syy5" type="github">
  <diagram name="Page-1" id="IfaM5vx5kU6pomAasaYo">
    <mxGraphModel>
      <root>
        <mxCell id="0" />
        <mxCell id="1" parent="0" />
      </root>
    </mxGraphModel>
  </diagram>
</mxfile>
